<svg height="512" width="512" xmlns="http://www.w3.org/2000/svg"><path d="M444.958 337.623H221.009a7.503 7.503 0 100 15.006h223.949a7.503 7.503 0 100-15.006zm0 41.015H221.009a7.503 7.503 0 100 15.006h223.949a7.503 7.503 0 100-15.006zm-59.271 41.015H221.009a7.503 7.503 0 100 15.006h164.678a7.503 7.503 0 100-15.006z"/><path d="M491.978 122.663l-61.435-61.435a7.507 7.507 0 00-5.306-2.198h-84.842V26.35c0-14.53-11.821-26.35-26.351-26.35H44.176c-14.53 0-26.351 11.821-26.351 26.35v400.27c0 14.53 11.821 26.35 26.351 26.35h99.783a7.503 7.503 0 100-15.006H44.176c-6.256 0-11.345-5.089-11.345-11.345V26.35c0-6.256 5.09-11.345 11.345-11.345h248.232l-97.996 37.616c-12.109 4.648-20.794 15.779-22.473 28.591-.501 3.14-.275 4.979-.333 8.535H64.005c-7.303 0-13.246 5.942-13.246 13.246v67.21c0 7.303 5.942 13.246 13.246 13.246h107.602v20.148H64.005c-7.303 0-13.246 5.942-13.246 13.246v67.21c0 7.303 5.942 13.246 13.246 13.246h107.602v22.653H58.262a7.503 7.503 0 100 15.006h113.345v23.175H58.262a7.503 7.503 0 100 15.006h113.345v112.513c0 14.53 11.821 26.351 26.35 26.351h269.867c14.53 0 26.35-11.821 26.35-26.351V127.968a7.496 7.496 0 00-2.196-5.305zm-59.239-38.017l35.82 35.82h-24.475c-6.255 0-11.345-5.09-11.345-11.345zM219.591 59.03l103.364-39.677a11.278 11.278 0 012.434 6.998V59.03zM65.764 168.443v-63.69h105.842v63.69zm0 113.849v-63.69h105.842v63.69zm402.06 214.703H197.957c-6.256 0-11.345-5.09-11.345-11.345V85.38c0-6.194 5.036-11.345 11.345-11.345h219.777v35.085c0 14.53 11.821 26.351 26.35 26.351h35.085v350.178c0 6.256-5.089 11.346-11.345 11.346z"/><path d="M436.466 158.832H288.233a7.503 7.503 0 100 15.006h148.234c1.125 0 2.042.916 2.042 2.041v101.428l-38.102-45.909c-8.44-10.168-24.025-10.148-32.448 0l-16.359 19.71-34.942-42.101c-8.441-10.168-24.025-10.147-32.448 0l-56.935 68.601v-101.73c0-1.125.916-2.041 2.041-2.041h23.842a7.503 7.503 0 100-15.006h-23.842c-9.399 0-17.047 7.647-17.047 17.047v107.489c0 9.4 7.647 17.047 17.047 17.047h207.151c9.4 0 17.047-7.647 17.047-17.047V175.879c0-9.4-7.648-17.047-17.048-17.047zm-56.961 82.15c2.431-2.931 6.921-2.932 9.354 0l36.873 44.428h-83.099zm-83.749-22.391c2.431-2.931 6.921-2.932 9.354 0l36.739 44.266-18.718 22.553H240.3z"/></svg>