<svg xmlns="http://www.w3.org/2000/svg" viewBox="0 0 87.129 87.129"><g fill="#fff"><path d="M43.564 55.433c.361 0 .723-.092 1.047-.277l17.562-9.997v14.62c-3.671 1.572-8.789 2.662-14.309 3.022a2.116 2.116 0 00.275 4.224c5.281-.345 10.133-1.287 14.033-2.698v7.184a2.113 2.113 0 00-1.634 2.056v7.435c0 1.17.947 2.117 2.116 2.117.662 0 1.246-.31 1.634-.786.389.476.973.786 1.635.786a2.116 2.116 0 002.116-2.117v-7.435a2.115 2.115 0 00-1.635-2.057V41.185c0-.761-.408-1.463-1.068-1.839L45.2 27.883a2.116 2.116 0 10-2.095 3.678l17.199 9.79-16.74 9.529L6.395 29.722 43.564 8.563l20.675 11.769a2.118 2.118 0 002.094-3.679L44.611 4.288a2.116 2.116 0 00-2.094 0L1.069 27.883a2.118 2.118 0 000 3.678l41.448 23.595c.325.184.686.277 1.047.277zm42.495-27.55l-12.047-6.859a2.116 2.116 0 10-2.095 3.678l8.816 5.02-6.328 3.602a2.117 2.117 0 002.095 3.68l9.559-5.441a2.117 2.117 0 000-3.68zM17.576 48.875a2.116 2.116 0 00-2.116 2.117v4.171c0 4.777 5.464 8.68 14.991 10.71a2.112 2.112 0 002.511-1.629 2.117 2.117 0 00-1.63-2.511c-7.642-1.627-11.641-4.537-11.641-6.569v-4.171a2.115 2.115 0 00-2.115-2.118z"/><path d="M37.054 63.279a2.137 2.137 0 00-.621 1.496c0 .558.227 1.1.621 1.496.396.395.938.621 1.496.621a2.124 2.124 0 002.116-2.117c0-.557-.226-1.101-.621-1.496-.783-.783-2.208-.783-2.991 0z"/></g></svg>