<svg height="512pt" viewBox="0 0 512 512" width="512pt" xmlns="http://www.w3.org/2000/svg" fill="#4daddd"><path d="M176 119c0-31.43-25.57-57-57-57s-57 25.57-57 57 25.57 57 57 57 57-25.57 57-57zm-84 0c0-14.887 12.113-27 27-27s27 12.113 27 27-12.113 27-27 27-27-12.113-27-27zm0 0"/><path d="M512 306c0-21.93-12.902-40.895-31.512-49.719C487.718 246.371 492 234.18 492 221c0-33.086-26.914-60-60-60s-60 26.914-60 60c0 13.18 4.281 25.371 11.512 35.281C364.902 265.105 352 284.071 352 306v94h21.281l7.32 82H50c-11.027 0-20-8.973-20-20s8.973-20 20-20h138c27.57 0 50-22.43 50-50s-22.43-50-50-50h-34c-11.027 0-20-8.973-20-20v-51.074c24.387-17.23 104-79.059 104-151.926C238 53.383 184.617 0 119 0S0 53.383 0 119c0 72.867 79.613 134.695 104 151.926V322c0 27.57 22.43 50 50 50h34c11.027 0 20 8.973 20 20s-8.973 20-20 20H50c-27.57 0-50 22.43-50 50s22.43 50 50 50h430.723l10-112H512zM30 119c0-49.074 39.926-89 89-89s89 39.926 89 89c0 34.535-25.715 67.973-47.285 89.941-16.05 16.348-32.317 28.97-41.723 35.793-9.305-6.746-25.328-19.175-41.308-35.39C55.93 187.277 30 153.69 30 119zm402 72c16.543 0 30 13.457 30 30s-13.457 30-30 30-30-13.457-30-30 13.457-30 30-30zm-50 115c0-13.785 11.215-25 25-25h50c13.785 0 25 11.215 25 25v64H382zm71.277 176H410.72l-7.32-82h57.203zm0 0"/></svg>